# Blender v2.80 (sub 74) OBJ File: 'Crow.blend'
# www.blender.org
mtllib Crow_leg.mtl
o Cylinder.003
v 0.000000 -0.000000 -0.060201
v -0.032836 -0.013186 -0.048703
v 0.381262 -0.695872 -0.030294
v 0.401686 -0.687670 -0.037445
v 0.431054 -0.746490 -0.057198
v 0.399856 -0.759019 -0.046274
v -0.053130 -0.021336 -0.018603
v -0.053130 -0.021336 0.018603
v -0.032836 -0.013186 0.048703
v 0.000000 0.000001 0.060200
v 0.032835 0.013187 0.048703
v 0.053129 0.021336 0.018603
v 0.053129 0.021336 -0.018603
v 0.032835 0.013187 -0.048703
v 0.436215 -0.869729 -0.057198
v 0.402621 -0.868386 -0.046274
v 0.368639 -0.700941 -0.023241
v 0.380574 -0.766762 -0.037228
v 0.368639 -0.700941 0.023240
v 0.380574 -0.766762 0.037227
v 0.381262 -0.695872 0.030293
v 0.399856 -0.759019 0.046274
v 0.401686 -0.687670 0.037444
v 0.431054 -0.746490 0.057198
v 0.422110 -0.703933 0.030293
v 0.462253 -0.774953 0.046274
v 0.499881 -0.700485 0.019274
v 0.590691 -0.769927 0.030581
v 0.499881 -0.700485 -0.019274
v 0.590691 -0.769927 -0.030581
v 0.422110 -0.679468 -0.030294
v 0.462253 -0.733962 -0.046274
v 0.469808 -0.871072 -0.046274
v 0.572596 -0.871901 -0.030581
v 0.572596 -0.871901 0.030581
v 0.469808 -0.871072 0.046274
v 0.436215 -0.869729 0.057198
v 0.402621 -0.868386 0.046274
v 0.381860 -0.867556 0.037227
v 0.381860 -0.867556 -0.037228
v 0.114814 -0.832740 0.029092
v 0.127123 -0.893922 0.029092
v 0.598660 -0.873103 0.118611
v 0.593945 -0.800620 0.116830
v 0.904230 -0.836280 -0.017060
v 0.909270 -0.908763 -0.017060
v 0.610716 -0.873103 0.086692
v -0.145607 -0.871523 0.029965
v -0.138896 -0.952382 0.029965
v 0.127123 -0.893922 -0.029092
v 0.114814 -0.832740 -0.029092
v -0.230624 -0.865511 0.040471
v -0.213635 -0.973771 0.040471
v -0.138896 -0.952382 -0.029965
v -0.145607 -0.871523 -0.029965
v -0.302427 -0.917938 0.028513
v -0.290457 -0.994211 0.028513
v -0.213635 -0.973771 -0.040471
v -0.230624 -0.865511 -0.040471
v -0.362192 -0.943247 0.014685
v -0.362008 -0.983010 0.014685
v -0.290457 -0.994211 -0.028513
v -0.302427 -0.917938 -0.028514
v -0.421921 -0.968722 0.011075
v -0.416024 -0.998125 0.011075
v -0.362008 -0.983010 -0.014685
v -0.362192 -0.943247 -0.014685
v -0.416024 -0.998125 -0.011075
v -0.421921 -0.968722 -0.011075
v -0.472801 -1.021609 -0.000565
v 1.160541 -0.958795 -0.013088
v 1.156674 -0.903189 -0.013088
v 1.264693 -0.895796 -0.017061
v 1.269734 -0.968279 -0.017061
v 0.909270 -0.908763 0.017060
v 0.904230 -0.836280 0.017060
v 1.289732 -0.898147 -0.015308
v 1.294253 -0.963186 -0.015308
v 1.156674 -0.903189 0.013088
v 1.160541 -0.958795 0.013088
v 1.269734 -0.968279 0.017060
v 1.264693 -0.895796 0.017060
v 1.341853 -0.921684 -0.007246
v 1.323941 -0.948066 -0.007246
v 1.294253 -0.963186 0.015308
v 1.289732 -0.898147 0.015308
v 1.378278 -0.949016 -0.005894
v 1.359700 -0.967855 -0.005894
v 1.323941 -0.948066 0.007245
v 1.341853 -0.921684 0.007245
v 1.395113 -0.996574 -0.000257
v 1.359700 -0.967855 0.005893
v 1.378278 -0.949016 0.005893
v 1.086099 -0.958795 0.210680
v 1.082352 -0.903189 0.209722
v 1.187989 -0.895796 0.232625
v 1.192873 -0.968279 0.233874
v 1.211814 -0.898148 0.240524
v 1.216195 -0.963186 0.241644
v 1.075871 -0.903189 0.235082
v 1.079616 -0.958795 0.236040
v 1.184423 -0.968279 0.266931
v 1.179539 -0.895796 0.265682
v 0.843639 -0.908763 0.144601
v 0.838756 -0.836281 0.143353
v 0.830305 -0.836281 0.176410
v 0.835189 -0.908763 0.177658
v 1.260315 -0.921684 0.261244
v 1.242961 -0.948066 0.256808
v 1.208612 -0.963186 0.271306
v 1.204232 -0.898148 0.270186
v 1.295270 -0.949016 0.271574
v 1.277272 -0.967855 0.266973
v 1.239372 -0.948066 0.270847
v 1.256727 -0.921684 0.275283
v 1.311355 -0.996756 0.281505
v 1.274352 -0.967855 0.278394
v 1.292351 -0.949016 0.282995
v 1.074694 -0.958795 -0.274510
v 1.070972 -0.903189 -0.273460
v 1.173853 -0.895796 -0.306616
v 1.178705 -0.968279 -0.307984
v 1.198426 -0.898148 -0.311729
v 1.202779 -0.963186 -0.312957
v 1.078080 -0.903189 -0.248268
v 1.081802 -0.958795 -0.249318
v 1.187969 -0.968278 -0.275146
v 1.183119 -0.895796 -0.273778
v 0.831785 -0.908763 -0.210100
v 0.826935 -0.836280 -0.208731
v 1.250779 -0.921684 -0.318123
v 1.233540 -0.948066 -0.313259
v 1.211093 -0.963186 -0.283491
v 1.206740 -0.898147 -0.282263
v 1.286202 -0.949016 -0.326713
v 1.268322 -0.967855 -0.321668
v 1.237475 -0.948066 -0.299313
v 1.254713 -0.921684 -0.304177
v 1.305099 -0.996756 -0.326188
v 1.271523 -0.967855 -0.310324
v 1.289403 -0.949015 -0.315368
v 0.836200 -0.836280 -0.175893
v 0.841051 -0.908763 -0.177262
v 0.608878 -0.873103 -0.133616
v 0.604315 -0.800620 -0.131476
v 0.618798 -0.800620 -0.100582
v 0.623361 -0.873102 -0.102722
v 0.606001 -0.800620 0.084911
vt 0.051865 0.108645
vt 0.051215 0.112731
vt 0.039766 0.111817
vt 0.040732 0.106743
vt 0.255129 0.446193
vt 0.248304 0.443803
vt 0.261912 0.423547
vt 0.267645 0.428246
vt 0.052301 0.105977
vt 0.041203 0.103412
vt 0.053679 0.097894
vt 0.044666 0.093118
vt 0.053196 0.151599
vt 0.053785 0.154204
vt 0.043293 0.158701
vt 0.042152 0.155091
vt 0.052260 0.147514
vt 0.040420 0.149859
vt 0.047616 0.145213
vt 0.034281 0.147184
vt 0.039544 0.133282
vt 0.020192 0.134094
vt 0.039425 0.126516
vt 0.020303 0.125289
vt 0.050735 0.116782
vt 0.039280 0.117067
vt 0.112171 0.762840
vt 0.092471 0.762583
vt 0.092658 0.748270
vt 0.258912 0.448134
vt 0.271017 0.430947
vt 0.258420 0.483847
vt 0.256100 0.463137
vt 0.312421 0.474740
vt 0.309577 0.487146
vt 0.251721 0.463121
vt 0.254163 0.484594
vt 0.245804 0.462531
vt 0.246888 0.485889
vt 0.238351 0.465671
vt 0.240653 0.487120
vt 0.213649 0.500189
vt 0.204435 0.485764
vt 0.183227 0.413125
vt 0.201042 0.437814
vt 0.115470 0.430908
vt 0.112565 0.416010
vt 0.095526 0.784507
vt 0.083475 0.792467
vt 0.076714 0.789812
vt 0.240498 0.443869
vt 0.255592 0.418770
vt 0.366255 0.487822
vt 0.363919 0.504199
vt 0.318070 0.450953
vt 0.315047 0.463308
vt 0.110490 0.744079
vt 0.094642 0.743872
vt 0.097085 0.689382
vt 0.109470 0.689544
vt 0.380133 0.490385
vt 0.378835 0.509356
vt 0.374474 0.460070
vt 0.368685 0.475805
vt 0.097656 0.631403
vt 0.110413 0.631570
vt 0.394635 0.494263
vt 0.396305 0.509913
vt 0.390660 0.462762
vt 0.383319 0.480286
vt 0.095636 0.614827
vt 0.112865 0.615052
vt 0.408092 0.494916
vt 0.410511 0.503023
vt 0.405992 0.470348
vt 0.397097 0.483480
vt 0.098402 0.597939
vt 0.110541 0.598097
vt 0.420022 0.496732
vt 0.421785 0.501914
vt 0.415512 0.482925
vt 0.409601 0.488999
vt 0.101547 0.582561
vt 0.107799 0.582643
vt 0.433961 0.498286
vt 0.425065 0.489261
vt 0.421052 0.492993
vt 0.102471 0.570632
vt 0.107186 0.570693
vt 0.105120 0.557585
vt 0.056995 0.409655
vt 0.057284 0.422139
vt 0.035863 0.418972
vt 0.033632 0.405576
vt 0.196995 0.457402
vt 0.174021 0.476056
vt 0.106882 0.451180
vt 0.114307 0.437877
vt 0.108545 0.784677
vt 0.104725 0.856732
vt 0.097463 0.856637
vt 0.031699 0.418867
vt 0.028676 0.407404
vt 0.056300 0.427976
vt 0.052280 0.439748
vt 0.028928 0.436897
vt 0.035023 0.424646
vt 0.097596 0.911183
vt 0.103168 0.911256
vt 0.103709 0.934598
vt 0.096446 0.934503
vt 0.022069 0.418443
vt 0.022980 0.412111
vt 0.024693 0.433703
vt 0.030931 0.423625
vt 0.103266 0.939924
vt 0.096749 0.939839
vt 0.014459 0.417649
vt 0.014131 0.412518
vt 0.020582 0.427491
vt 0.021625 0.421133
vt 0.101458 0.946993
vt 0.098373 0.946953
vt 0.004815 0.417037
vt 0.012194 0.424378
vt 0.014115 0.419588
vt 0.101056 0.955689
vt 0.098547 0.955656
vt 0.099730 0.965379
vt 0.136646 0.573403
vt 0.147551 0.577047
vt 0.138085 0.594553
vt 0.125749 0.592206
vt 0.136641 0.598144
vt 0.125736 0.597080
vt 0.152433 0.579564
vt 0.161471 0.586771
vt 0.151440 0.606370
vt 0.142721 0.597144
vt 0.049839 0.893376
vt 0.055217 0.894833
vt 0.049933 0.917575
vt 0.042922 0.915676
vt 0.159090 0.526883
vt 0.172391 0.529564
vt 0.177933 0.532516
vt 0.187892 0.542428
vt 0.063283 0.840512
vt 0.070294 0.842412
vt 0.133161 0.606380
vt 0.127967 0.603531
vt 0.147287 0.609029
vt 0.140520 0.600356
vt 0.048179 0.922623
vt 0.041888 0.920919
vt 0.129979 0.612769
vt 0.125427 0.611330
vt 0.140550 0.610594
vt 0.135355 0.607638
vt 0.044668 0.929020
vt 0.041691 0.928213
vt 0.126278 0.621042
vt 0.135152 0.616882
vt 0.131564 0.613702
vt 0.042116 0.937342
vt 0.039693 0.936686
vt 0.038360 0.946614
vt 0.201222 0.298957
vt 0.190477 0.303703
vt 0.185628 0.283924
vt 0.196590 0.277232
vt 0.184256 0.280212
vt 0.193254 0.273527
vt 0.185032 0.305113
vt 0.173256 0.305882
vt 0.167405 0.284139
vt 0.180336 0.285144
vt 0.154302 0.895199
vt 0.159682 0.893745
vt 0.166583 0.916050
vt 0.159570 0.917944
vt 0.216341 0.349361
vt 0.204099 0.356555
vt 0.197892 0.358248
vt 0.183978 0.357466
vt 0.139263 0.842766
vt 0.146275 0.840872
vt 0.181221 0.271583
vt 0.187132 0.270164
vt 0.168728 0.279277
vt 0.179798 0.281201
vt 0.167613 0.921294
vt 0.161321 0.922993
vt 0.179262 0.264527
vt 0.183692 0.262467
vt 0.172759 0.273474
vt 0.178697 0.272148
vt 0.167806 0.928588
vt 0.164828 0.929393
vt 0.176255 0.255793
vt 0.172549 0.265062
vt 0.177439 0.264984
vt 0.169796 0.937062
vt 0.167374 0.937717
vt 0.171228 0.946963
vt 0.229787 0.395584
vt 0.216790 0.406996
vt 0.209091 0.410082
vt 0.192413 0.401522
vt 0.123760 0.795685
vt 0.130377 0.792688
vt 0.178875 0.485901
vt 0.198008 0.480197
vt 0.204612 0.103833
vt 0.205738 0.111036
vt 0.203093 0.097649
vt 0.201274 0.092124
vt 0.202898 0.156879
vt 0.201240 0.162463
vt 0.204469 0.150241
vt 0.205664 0.142935
vt 0.206216 0.134887
vt 0.206013 0.126994
vt 0.206287 0.118807
vt 0.112358 0.748527
vt 0.114590 0.755714
vt 0.090239 0.755396
vn -0.3717 0.1234 -0.9201
vn -0.3178 -0.0108 -0.9481
vn -0.4773 0.0901 -0.8741
vn -0.9840 -0.1784 0.0000
vn -0.4773 0.0901 0.8741
vn -0.3717 0.1234 0.9201
vn 0.6392 0.5024 0.5822
vn 0.1113 0.2885 0.9510
vn 0.6074 0.7944 0.0000
vn 0.2335 0.4378 -0.8682
vn 0.1628 0.3862 -0.9079
vn -0.0263 -0.9997 -0.0000
vn -0.0399 -0.9992 0.0000
vn -0.4106 -0.0079 -0.9118
vn -0.0308 -0.0026 0.9995
vn -0.4106 -0.0079 0.9118
vn -0.3178 -0.0108 0.9481
vn 0.3273 0.0190 0.9447
vn -0.4828 -0.0259 0.8753
vn 0.0411 -0.0031 -0.9992
vn -0.0115 -0.9999 -0.0103
vn 0.3171 0.0155 -0.9483
vn 0.0032 0.0004 1.0000
vn -0.0308 -0.0026 -0.9995
vn 0.1030 -0.9947 0.0000
vn -0.2409 0.9705 0.0000
vn 0.1289 0.0161 0.9915
vn 0.0032 0.0004 -1.0000
vn 0.2146 -0.9767 0.0000
vn -0.1473 0.9891 0.0000
vn -0.1477 -0.0232 0.9888
vn 0.1289 0.0161 -0.9915
vn 0.2751 -0.9614 0.0000
vn 0.0705 0.9975 0.0000
vn -0.2038 -0.0214 0.9788
vn -0.1477 -0.0232 -0.9888
vn 0.2571 -0.9664 0.0000
vn -0.5897 0.8076 0.0000
vn -0.0614 -0.0054 0.9981
vn -0.2038 -0.0214 -0.9788
vn -0.1547 -0.9880 0.0000
vn -0.3900 0.9208 0.0000
vn -0.3923 0.9198 0.0000
vn -0.3922 0.9199 -0.0000
vn -0.1859 -0.0373 0.9819
vn -0.0614 -0.0054 -0.9981
vn 0.2695 -0.9630 0.0000
vn -0.1684 -0.0338 -0.9851
vn 0.3822 -0.9241 0.0000
vn -0.7206 0.6933 0.0000
vn -0.0366 -0.0025 -0.9993
vn 0.0411 -0.0031 0.9992
vn -0.1088 -0.9941 0.0000
vn 0.2070 0.9783 0.0000
vn 0.0703 0.0049 -0.9975
vn -0.0366 -0.0025 0.9993
vn -0.0865 -0.9962 0.0000
vn -0.0683 0.9977 0.0000
vn 0.0160 0.0011 -0.9999
vn 0.0160 0.0011 0.9999
vn -0.1953 -0.9807 0.0000
vn 0.2562 0.9666 0.0000
vn 0.1905 -0.0279 -0.9813
vn 0.0703 0.0049 0.9975
vn 0.2034 -0.9791 0.0000
vn 0.0935 0.9956 0.0000
vn 0.0245 -0.0198 -0.9995
vn 0.1906 -0.0279 0.9813
vn 0.4538 -0.8911 0.0000
vn 0.4116 0.9114 0.0000
vn 0.0878 -0.0866 -0.9924
vn 0.0245 -0.0198 0.9995
vn -0.4842 -0.8750 0.0000
vn 0.6002 0.7999 0.0000
vn 0.0956 -0.0943 0.9909
vn -0.6299 -0.7767 0.0000
vn 0.9427 0.3337 0.0000
vn 0.2121 -0.0025 -0.9773
vn 0.3151 0.0049 -0.9490
vn -0.2829 -0.0025 0.9591
vn -0.0838 -0.9962 -0.0214
vn -0.0662 0.9977 -0.0169
vn 0.2632 0.0011 -0.9648
vn -0.2330 0.0014 0.9725
vn -0.2420 0.0040 0.9703
vn -0.2321 0.0011 0.9727
vn -0.1892 -0.9807 -0.0484
vn 0.2482 0.9666 0.0634
vn 0.4276 -0.0279 -0.9035
vn -0.1790 0.0049 0.9838
vn 0.1970 -0.9791 0.0504
vn 0.0906 0.9956 0.0232
vn 0.2713 -0.0198 -0.9623
vn -0.0584 -0.0279 0.9979
vn 0.4397 -0.8911 0.1124
vn 0.3987 0.9114 0.1019
vn 0.3291 -0.0848 -0.9405
vn -0.2238 -0.0198 0.9744
vn -0.4691 -0.8750 -0.1199
vn 0.5815 0.7999 0.1486
vn -0.1548 -0.0923 0.9836
vn -0.6002 -0.7850 -0.1534
vn 0.9063 0.3535 0.2316
vn -0.3066 -0.0026 -0.9518
vn -0.2033 0.0049 -0.9791
vn 0.2362 -0.0025 0.9717
vn -0.0833 -0.9962 0.0235
vn -0.0657 0.9977 0.0185
vn -0.2561 0.0011 -0.9667
vn 0.2869 0.0011 0.9579
vn -0.1879 -0.9807 0.0530
vn 0.2466 0.9666 -0.0696
vn -0.0831 -0.0279 -0.9962
vn 0.3385 0.0049 0.9410
vn 0.1957 -0.9791 -0.0552
vn 0.0900 0.9956 -0.0254
vn -0.2478 -0.0198 -0.9686
vn 0.4499 -0.0279 0.8927
vn 0.4368 -0.8911 -0.1232
vn 0.3961 0.9114 -0.1118
vn -0.1869 -0.0847 -0.9787
vn 0.2950 -0.0198 0.9553
vn -0.4660 -0.8750 0.1315
vn 0.5776 0.7999 -0.1630
vn 0.3593 -0.0924 0.9286
vn -0.5962 -0.7850 0.1682
vn 0.9003 0.3535 -0.2540
vn -0.3260 0.0017 -0.9454
vn 0.3254 -0.0018 0.9456
vn -0.1419 -0.9885 0.0529
vn 0.1419 0.9885 -0.0529
vn 0.2418 -0.0043 -0.9703
vn -0.2427 0.0042 0.9701
vn -0.1393 -0.9893 -0.0440
vn 0.1393 0.9893 0.0440
vn 0.0787 0.9401 0.3316
vn 0.8894 -0.0728 -0.4513
vn 0.8650 -0.0732 0.4964
vn 0.3093 0.9206 -0.2383
vn -0.5268 -0.0218 -0.8497
vn -0.0103 -0.9999 0.0081
vn -0.2588 -0.1826 -0.9485
vn -0.6180 -0.3861 -0.6849
vn -0.8497 -0.5273 0.0000
vn -0.6180 -0.3861 0.6849
vn -0.2588 -0.1826 0.9485
vn 0.3344 0.1611 0.9286
vn 0.3591 0.1974 0.9122
vn 0.8503 0.5263 0.0000
vn 0.4018 0.2263 -0.8873
vn 0.2799 0.1320 -0.9509
vn -0.0081 -1.0000 0.0000
usemtl Material.001
s 1
f 3/1/1 4/2/1 5/3/1 6/4/1
f 6/5/2 5/6/2 15/7/2 16/8/2
f 17/9/3 3/1/3 6/4/3 18/10/3
f 19/11/4 17/9/4 18/10/4 20/12/4
f 21/13/5 19/14/5 20/15/5 22/16/5
f 23/17/6 21/13/6 22/16/6 24/18/6
f 25/19/7 23/17/7 24/18/7 26/20/7
f 27/21/8 25/19/8 26/20/8 28/22/8
f 29/23/9 27/21/9 28/22/9 30/24/9
f 31/25/10 29/23/10 30/24/10 32/26/10
f 4/2/11 31/25/11 32/26/11 5/3/11
f 33/27/12 36/28/12 38/29/13
f 18/30/14 6/5/14 16/8/14 40/31/14
f 39/32/15 20/33/15 41/34/15 42/35/15
f 22/36/16 20/33/16 39/32/16 38/37/16
f 24/38/17 22/36/17 38/37/17 37/39/17
f 26/40/18 24/38/18 37/39/18 36/41/18
f 26/40/19 36/41/19 43/42/19 44/43/19
f 34/44/20 30/45/20 45/46/20 46/47/20
f 36/28/21 35/48/21 47/49/21 43/50/21
f 5/6/22 32/51/22 33/52/22 15/7/22
f 42/35/23 41/34/23 48/53/23 49/54/23
f 18/30/24 40/31/24 50/55/24 51/56/24
f 40/57/25 39/58/25 42/59/25 50/60/25
f 20/33/26 18/30/26 51/56/26 41/34/26
f 49/54/27 48/53/27 52/61/27 53/62/27
f 51/56/28 50/55/28 54/63/28 55/64/28
f 50/60/29 42/59/29 49/65/29 54/66/29
f 41/34/30 51/56/30 55/64/30 48/53/30
f 53/62/31 52/61/31 56/67/31 57/68/31
f 55/64/32 54/63/32 58/69/32 59/70/32
f 54/66/33 49/65/33 53/71/33 58/72/33
f 48/53/34 55/64/34 59/70/34 52/61/34
f 57/68/35 56/67/35 60/73/35 61/74/35
f 59/70/36 58/69/36 62/75/36 63/76/36
f 58/72/37 53/71/37 57/77/37 62/78/37
f 52/61/38 59/70/38 63/76/38 56/67/38
f 61/74/39 60/73/39 64/79/39 65/80/39
f 63/76/40 62/75/40 66/81/40 67/82/40
f 62/78/41 57/77/41 61/83/41 66/84/41
f 56/67/42 63/76/42 67/82/43 60/73/44
f 65/80/45 64/79/45 70/85/45
f 67/82/46 66/81/46 68/86/46 69/87/46
f 66/84/47 61/83/47 65/88/47 68/89/47
f 60/73/44 67/82/43 69/87/43 64/79/43
f 69/87/48 68/86/48 70/85/48
f 68/89/49 65/88/49 70/90/49
f 64/79/50 69/87/50 70/85/50
f 71/91/51 72/92/51 73/93/51 74/94/51
f 28/95/52 35/96/52 75/97/52 76/98/52
f 35/48/53 34/99/53 46/100/53 75/101/53
f 30/45/54 28/95/54 76/98/54 45/46/54
f 74/94/55 73/93/55 77/102/55 78/103/55
f 79/104/56 80/105/56 81/106/56 82/107/56
f 80/108/57 71/109/57 74/110/57 81/111/57
f 72/92/58 79/104/58 82/107/58 73/93/58
f 46/47/59 45/46/59 72/92/59 71/91/59
f 76/98/60 75/97/60 80/105/60 79/104/60
f 75/101/61 46/100/61 71/109/61 80/108/61
f 45/46/62 76/98/62 79/104/62 72/92/62
f 78/103/63 77/102/63 83/112/63 84/113/63
f 82/107/64 81/106/64 85/114/64 86/115/64
f 81/111/65 74/110/65 78/116/65 85/117/65
f 73/93/66 82/107/66 86/115/66 77/102/66
f 84/113/67 83/112/67 87/118/67 88/119/67
f 86/115/68 85/114/68 89/120/68 90/121/68
f 85/117/69 78/116/69 84/122/69 89/123/69
f 77/102/70 86/115/70 90/121/70 83/112/70
f 88/119/71 87/118/71 91/124/71
f 90/121/72 89/120/72 92/125/72 93/126/72
f 89/123/73 84/122/73 88/127/73 92/128/73
f 83/112/74 90/121/74 93/126/74 87/118/74
f 93/126/75 92/125/75 91/124/75
f 92/128/76 88/127/76 91/129/76
f 87/118/77 93/126/77 91/124/77
f 94/130/78 95/131/78 96/132/78 97/133/78
f 97/133/79 96/132/79 98/134/79 99/135/79
f 100/136/80 101/137/80 102/138/80 103/139/80
f 101/140/81 94/141/81 97/142/81 102/143/81
f 95/131/82 100/136/82 103/139/82 96/132/82
f 104/144/83 105/145/83 95/131/83 94/130/83
f 106/146/84 107/147/85 101/137/86 100/136/86
f 107/148/87 104/149/87 94/141/87 101/140/87
f 105/145/88 106/146/88 100/136/88 95/131/88
f 99/135/89 98/134/89 108/150/89 109/151/89
f 103/139/90 102/138/90 110/152/90 111/153/90
f 102/143/91 97/142/91 99/154/91 110/155/91
f 96/132/92 103/139/92 111/153/92 98/134/92
f 109/151/93 108/150/93 112/156/93 113/157/93
f 111/153/94 110/152/94 114/158/94 115/159/94
f 110/155/95 99/154/95 109/160/95 114/161/95
f 98/134/96 111/153/96 115/159/96 108/150/96
f 113/157/97 112/156/97 116/162/97
f 115/159/98 114/158/98 117/163/98 118/164/98
f 114/161/99 109/160/99 113/165/99 117/166/99
f 108/150/100 115/159/100 118/164/100 112/156/100
f 118/164/101 117/163/101 116/162/101
f 117/166/102 113/165/102 116/167/102
f 112/156/103 118/164/103 116/162/103
f 119/168/104 120/169/104 121/170/104 122/171/104
f 122/171/105 121/170/105 123/172/105 124/173/105
f 125/174/106 126/175/106 127/176/106 128/177/106
f 126/178/107 119/179/107 122/180/107 127/181/107
f 120/169/108 125/174/108 128/177/108 121/170/108
f 129/182/109 130/183/109 120/169/109 119/168/109
f 142/184/110 143/185/110 126/175/110 125/174/110
f 143/186/111 129/187/111 119/179/111 126/178/111
f 130/183/112 142/184/112 125/174/112 120/169/112
f 124/173/113 123/172/113 131/188/113 132/189/113
f 128/177/114 127/176/114 133/190/114 134/191/114
f 127/181/115 122/180/115 124/192/115 133/193/115
f 121/170/116 128/177/116 134/191/116 123/172/116
f 132/189/117 131/188/117 135/194/117 136/195/117
f 134/191/118 133/190/118 137/196/118 138/197/118
f 133/193/119 124/192/119 132/198/119 137/199/119
f 123/172/120 134/191/120 138/197/120 131/188/120
f 136/195/121 135/194/121 139/200/121
f 138/197/122 137/196/122 140/201/122 141/202/122
f 137/199/123 132/198/123 136/203/123 140/204/123
f 131/188/124 138/197/124 141/202/124 135/194/124
f 141/202/125 140/201/125 139/200/125
f 140/204/126 136/203/126 139/205/126
f 135/194/127 141/202/127 139/200/127
f 130/183/128 129/182/128 144/206/128 145/207/128
f 143/185/129 142/184/129 146/208/129 147/209/129
f 129/187/130 143/186/130 147/210/130 144/211/130
f 142/184/131 130/183/131 145/207/131 146/208/131
f 105/145/132 104/144/132 47/212/132 148/213/132
f 107/147/85 106/146/84 44/43/133 43/42/133
f 104/149/134 107/148/134 43/50/134 47/49/134
f 106/146/135 105/145/135 148/213/135 44/43/135
f 26/40/136 44/43/136 148/213/136 28/95/136
f 28/95/137 148/213/137 47/212/137 35/96/137
f 30/45/138 34/44/138 147/209/138 146/208/138
f 30/45/139 146/208/139 145/207/139 32/51/139
f 32/51/140 145/207/140 144/206/140 33/52/140
f 34/99/141 33/27/141 144/211/141 147/210/141
f 2/214/142 1/215/142 4/2/142 3/1/142
f 7/216/143 2/214/143 3/1/143 17/9/143
f 8/217/144 7/216/144 17/9/144 19/11/144
f 9/218/145 8/219/145 19/14/145 21/13/145
f 10/220/146 9/218/146 21/13/146 23/17/146
f 11/221/147 10/220/147 23/17/147 25/19/147
f 12/222/148 11/221/148 25/19/148 27/21/148
f 13/223/149 12/222/149 27/21/149 29/23/149
f 14/224/150 13/223/150 29/23/150 31/25/150
f 1/215/151 14/224/151 31/25/151 4/2/151
f 16/225/13 15/226/13 33/27/12
f 33/27/12 34/99/152 35/48/152
f 36/28/12 37/227/13 38/29/13
f 33/27/12 35/48/152 36/28/12
f 40/57/13 16/225/13 38/29/13
f 16/225/13 33/27/12 38/29/13
f 38/29/13 39/58/13 40/57/13
